<?xml version="1.0" standalone="no"?>
<!DOCTYPE svg PUBLIC "-//W3C//DTD SVG 20010904//EN"
 "http://www.w3.org/TR/2001/REC-SVG-20010904/DTD/svg10.dtd">
<svg version="1.0" xmlns="http://www.w3.org/2000/svg"
 width="200.000000pt" height="176.000000pt" viewBox="0 0 200.000000 176.000000"
 preserveAspectRatio="xMidYMid meet">
<metadata>
Created by potrace 1.16, written by Peter Selinger 2001-2019
</metadata>
<g transform="translate(0.000000,176.000000) scale(0.100000,-0.100000)"
fill="#000000" stroke="none">
<path d="M1770 1746 c0 -8 14 -30 30 -48 17 -18 30 -38 30 -44 0 -7 4 -14 9
-16 13 -5 67 -117 81 -168 7 -25 16 -76 20 -113 7 -63 4 -105 -16 -240 -6 -40
-4 -47 8 -42 38 15 53 270 23 380 -8 33 -31 92 -49 130 -55 116 -136 212 -136
161z"/>
<path d="M1710 1641 c0 -14 20 -49 43 -75 27 -31 66 -118 78 -176 11 -51 7
-201 -7 -247 -5 -17 -2 -23 9 -23 27 0 49 169 33 250 -10 49 -47 162 -57 175
-5 5 -23 30 -41 54 -33 44 -58 62 -58 42z"/>
<path d="M1482 1584 c-12 -8 -22 -23 -22 -32 0 -13 -64 -49 -237 -133 -131
-64 -239 -112 -241 -107 -7 15 -62 9 -69 -8 -3 -9 4 -59 16 -111 13 -52 22
-96 20 -97 -2 -2 -13 -6 -24 -10 -18 -5 -21 -1 -24 27 -6 60 -7 67 -14 73 -4
4 -7 15 -7 24 0 30 -61 130 -111 181 -31 32 -75 62 -126 86 -66 32 -89 38
-166 41 -200 10 -353 -80 -440 -258 -31 -62 -32 -70 -32 -185 0 -117 1 -122
36 -196 46 -95 118 -168 208 -210 36 -17 72 -34 80 -38 8 -4 22 -23 32 -42 10
-18 22 -38 26 -44 5 -5 19 -28 33 -49 19 -32 21 -41 9 -44 -64 -22 -273 -138
-312 -175 -42 -39 -47 -48 -47 -86 0 -69 46 -106 185 -147 51 -16 192 2 252
31 106 52 72 144 -60 161 -26 4 -50 11 -53 15 -3 5 -1 9 4 9 14 0 169 89 182
105 6 7 13 28 16 47 4 27 -4 49 -44 118 -27 47 -48 86 -47 88 3 3 110 31 111
29 25 -38 111 -197 106 -197 -4 0 -2 -4 4 -8 12 -8 194 -320 194 -333 0 -17
56 -59 87 -65 50 -9 83 3 130 51 24 25 43 46 42 47 -1 2 6 27 16 57 34 104 3
247 -62 282 -21 11 -29 11 -51 -2 -31 -17 -68 -77 -83 -136 -6 -24 -14 -43
-18 -43 -4 0 -63 93 -130 206 l-123 206 38 39 38 39 121 0 c163 1 273 21 303
55 28 33 30 93 3 126 -12 16 -17 34 -14 57 l5 32 174 0 c162 0 175 -1 195 -21
14 -14 27 -18 42 -13 51 15 51 22 19 160 -17 71 -33 140 -36 154 -3 14 -10 43
-15 65 -5 22 -8 41 -6 44 3 2 1 9 -4 15 -5 6 -14 35 -21 64 -16 68 -44 87 -88
56z m57 -51 c40 -149 111 -465 106 -473 -13 -22 -35 -8 -44 28 -40 149 -110
465 -105 473 12 21 34 7 43 -28z m-16 -237 c26 -110 46 -200 44 -201 -1 -1
-120 -5 -264 -8 l-263 -5 -9 36 c-35 133 -40 157 -33 160 5 1 112 54 238 116
126 62 232 111 235 107 3 -3 27 -96 52 -205z"/>
</g>
</svg>
